<?xml version="1.0" encoding="UTF-8" standalone="no"?>
<svg width="80px" height="80px" viewBox="0 0 80 80" version="1.1" xmlns="http://www.w3.org/2000/svg" xmlns:xlink="http://www.w3.org/1999/xlink" xmlns:sketch="http://www.bohemiancoding.com/sketch/ns">
    <!-- Generator: Sketch 3.1.1 (8761) - http://www.bohemiancoding.com/sketch -->
    <title>Phone</title>
    <desc>Created with Sketch.</desc>
    <defs></defs>
    <g id="Page-1" stroke="none" stroke-width="1" fill="none" fill-rule="evenodd" sketch:type="MSPage">
        <g id="icon-phone" sketch:type="MSLayerGroup" transform="translate(1.000000, 1.000000)" fill="#4A4A4A">
            <path d="M74.078,50.037 C72.895,49.117 69.228,46.637 62.877,42.382 C61.721,41.608 60.817,41.002 60.416,40.729 C58.527,39.441 56.515,38.787 54.439,38.787 C52.859,38.787 49.199,39.237 46.422,43.019 C44.634,41.286 42.616,39.273 40.837,37.451 L40.771,37.382 L40.701,37.315 C38.879,35.536 36.867,33.518 35.133,31.73 C37.641,29.889 38.669,27.679 39.082,26.022 C39.481,24.423 39.796,21.221 37.422,17.736 C37.151,17.339 36.549,16.439 35.778,15.288 C31.518,8.93 29.035,5.259 28.112,4.072 C25.404,0.585 22.247,-0.149 20.075,-0.149 C18.301,-0.149 16.876,0.335 15.836,0.688 L15.494,0.804 C12.971,1.643 10.377,2.721 6.474,6.625 C-1.059,14.161 -2.271,23.025 2.656,34.524 C7.37,45.523 18.639,56.974 19.909,58.243 C21.179,59.512 32.63,70.781 43.629,75.496 C48.275,77.486 52.385,78.455 56.193,78.455 C61.951,78.455 66.966,76.238 71.528,71.678 C75.428,67.778 76.507,65.185 77.35,62.655 L77.464,62.316 C78.106,60.427 80.059,54.681 74.078,50.037 L74.078,50.037 Z M69.761,60.126 C69.231,61.718 68.7,63.192 65.872,66.021 C63.25,68.643 60.357,70.456 56.193,70.456 C53.619,70.456 50.56,69.764 46.78,68.144 C36.88,63.901 25.566,52.586 25.566,52.586 C25.566,52.586 14.253,41.271 10.01,31.372 C5.768,21.472 7.889,16.524 12.132,12.28 C14.96,9.452 16.435,8.921 18.027,8.391 C18.928,8.091 19.545,7.849 20.076,7.849 C20.664,7.849 21.149,8.144 21.798,8.98 C23.025,10.558 29.686,20.584 30.812,22.238 C31.815,23.711 31.465,24.785 29.694,25.715 C27.22,27.01 23.197,29.613 24.153,31.371 C25.275,33.433 35.114,43.037 35.114,43.037 C35.114,43.037 44.718,52.879 46.78,54 C46.961,54.099 47.15,54.145 47.347,54.145 C49.058,54.145 51.273,50.678 52.436,48.459 C53.024,47.338 53.669,46.786 54.439,46.786 C54.884,46.786 55.372,46.972 55.913,47.341 C57.566,48.467 67.593,55.128 69.172,56.356 C70.763,57.591 70.394,58.229 69.761,60.126 L69.761,60.126 Z" id="Shape" sketch:type="MSShapeGroup"></path>
        </g>
    </g>
</svg>