<?xml version="1.0" encoding="UTF-8" standalone="no"?>
<svg width="581px" height="637px" viewBox="0 0 581 637" version="1.1" xmlns="http://www.w3.org/2000/svg" xmlns:xlink="http://www.w3.org/1999/xlink" xmlns:sketch="http://www.bohemiancoding.com/sketch/ns">
    <!-- Generator: Sketch 3.1.1 (8761) - http://www.bohemiancoding.com/sketch -->
    <title>TABLEFLIP</title>
    <desc>Created with Sketch.</desc>
    <defs>
        <linearGradient x1="50%" y1="0%" x2="50%" y2="100%" id="linearGradient-1">
            <stop stop-color="#50E3C2" offset="0%"></stop>
            <stop stop-color="#18C8A0" offset="100%"></stop>
        </linearGradient>
    </defs>
    <g id="Page-1" stroke="none" stroke-width="1" fill="none" fill-rule="evenodd" sketch:type="MSPage">
        <g id="logo" sketch:type="MSLayerGroup" transform="translate(11.000000, 12.000000)">
            <g id="Page-1" sketch:type="MSShapeGroup">
                <g id="icon_79453-3-+-icon_79453-3">
                    <path d="M264.140581,3.88472911 C273.436521,-1.2949097 284.886884,-1.2949097 294.182824,3.88472911 L542.978879,142.483392 C552.274818,147.663031 558,157.232847 558,167.592124 L558,444.982001 C558,455.341278 552.274818,464.911094 542.978879,470.109988 L294.182824,608.804927 C284.886884,613.984565 273.436521,613.984565 264.120632,608.804927 L15.3844234,470.109988 C6.0884836,464.930349 0.363301778,455.341278 0.363301778,444.982001 L0.363301778,167.592124 C0.363301778,157.232847 6.0884836,147.663031 15.4043718,142.483392 L264.140581,3.88472911" id="Fill-7" stroke="#FFFFFF" stroke-width="23" fill="url(#linearGradient-1)"></path>
                    <g id="icon_79453-2" transform="translate(47.518519, 56.750000)" fill="#FFFFFF">
                        <path d="M462.962963,299.317854 L462.962963,129.074993 C462.962963,127.940041 462.962963,126.805088 462.418301,125.670136 L462.418301,124.535183 C461.873638,123.400231 461.873638,122.832755 461.328976,121.697802 C461.328976,121.697802 461.328976,121.130326 460.784314,121.130326 C460.239651,119.995374 459.694989,119.427898 458.605664,118.292945 L458.061002,117.725469 C457.51634,117.157993 456.427015,116.590517 455.882353,116.02304 C455.882353,116.02304 455.882353,116.02304 455.337691,115.455564 L237.472767,1.96032335 C233.660131,-0.30958147 229.302832,-0.30958147 225.490196,1.96032335 L7.62527233,115.455564 C7.62527233,115.455564 7.62527233,115.455564 7.08061002,116.02304 C5.9912854,116.590517 5.44662309,117.157993 4.90196078,117.725469 L4.35729847,118.292945 C3.81263617,118.860421 2.72331155,119.995374 2.17864924,121.130326 C2.17864924,121.130326 2.17864924,121.697802 1.63398693,121.697802 C1.08932462,122.265279 1.08932462,123.400231 0.544662309,124.535183 L0.544662309,125.670136 C0,126.805088 0,127.940041 0,129.074993 L0,299.317854 C0,307.262521 5.9912854,313.504759 13.6165577,313.504759 C21.2418301,313.504759 27.2331155,307.262521 27.2331155,299.317854 L27.2331155,151.774041 L217.864924,251.082377 L217.864924,412.813095 C217.864924,420.757762 223.856209,427 231.481481,427 C239.106754,427 245.098039,420.757762 245.098039,412.813095 L245.098039,251.082377 L435.729847,151.774041 L435.729847,299.317854 C435.729847,307.262521 441.721133,313.504759 449.346405,313.504759 C456.971678,313.504759 462.962963,307.262521 462.962963,299.317854 L462.962963,299.317854 L462.962963,299.317854 Z M231.481481,226.6809 L44.1176471,129.074993 L231.481481,31.4690859 L418.845316,129.074993 L231.481481,226.6809 L231.481481,226.6809 Z" id="Shape"></path>
                    </g>
                </g>
            </g>
        </g>
    </g>
</svg>