<?xml version="1.0" encoding="UTF-8" standalone="no"?>
<svg width="403px" height="708px" viewBox="0 0 403 708" version="1.1" xmlns="http://www.w3.org/2000/svg" xmlns:xlink="http://www.w3.org/1999/xlink" xmlns:sketch="http://www.bohemiancoding.com/sketch/ns">
    <!-- Generator: Sketch 3.1.1 (8761) - http://www.bohemiancoding.com/sketch -->
    <title>tesselate</title>
    <desc>Created with Sketch.</desc>
    <defs></defs>
    <g id="Page-1" stroke="none" stroke-width="1" fill="none" fill-rule="evenodd" sketch:type="MSPage">
        <g id="nodeschool" sketch:type="MSLayerGroup" transform="translate(-601.000000, -234.000000)" stroke="#FFFFFF" stroke-width="25">
            <path d="M802.49734,696.834532 L601.802766,812.707249 L401,696.834532 L401,464.980908 L601.802766,349 L802.49734,464.980908 L802.49734,696.834532 Z" id="Shape" fill="#FCFCFC" sketch:type="MSShapeGroup"></path>
            <path d="M1000.99734,347.834532 L801.302766,463.707249 L600.5,347.834532 L600.5,115.980908 L801.302766,0 L1001.99734,115.980908 L1000.99734,347.834532 Z" id="Shape-2" fill="#FCFCFC" sketch:type="MSShapeGroup"></path>
            <path d="M601.5,347.834532 L400.805425,463.707249 L200.00266,347.834532 L200.00266,115.980908 L400.805425,0 L601.5,115.980908 L601.5,347.834532 Z" id="Shape-3" fill-opacity="0.01" fill="#000000" sketch:type="MSShapeGroup"></path>
            <path d="M1203.49734,696.834532 L1002.80277,812.707249 L802,696.834532 L802,464.980908 L1002.80277,349 L1203.49734,464.980908 L1203.49734,696.834532 Z" id="Shape-5" fill="#FCFCFC" sketch:type="MSShapeGroup"></path>
            <path d="M1001.49734,1043.83453 L800.802766,1159.70725 L600,1043.83453 L600,811.980908 L800.802766,696 L1001.49734,811.980908 L1001.49734,1043.83453 Z" id="Shape-6" fill="#FCFCFC" sketch:type="MSShapeGroup"></path>
            <path d="M601.49734,1043.83453 L400.802766,1159.70725 L200,1043.83453 L200,811.980908 L400.802766,696 L601.49734,811.980908 L601.49734,1043.83453 Z" id="Shape-7" fill-opacity="0.01" fill="#000000" sketch:type="MSShapeGroup"></path>
        </g>
    </g>
</svg>