<svg xmlns="http://www.w3.org/2000/svg" width="100" height="100" viewBox="0 0 100 100"><g fill="#FFFFFF"><path d="M27.143 94.794C14.933 94.794 5 84.862 5 72.652V35.498c0-3.55 2.877-6.427 6.428-6.427s6.428 2.88 6.428 6.428v37.155c0 5.12 4.166 9.287 9.287 9.287s9.287-4.166 9.287-9.287c-.003-3.505-1.942-6.674-5.068-8.28-3.158-1.62-4.406-5.492-2.786-8.654 1.62-3.16 5.496-4.406 8.654-2.79 7.433 3.815 12.056 11.37 12.056 19.72 0 12.212-9.932 22.144-22.143 22.144z"/><path d="M65.715 79.083c-3.55 0-6.43-2.88-6.43-6.43 0-15.46-11.01-28.753-26.178-31.595-3.492-.654-5.79-4.014-5.14-7.5.657-3.492 4.02-5.79 7.507-5.136 21.246 3.98 36.668 22.584 36.668 44.23 0 3.55-2.88 6.43-6.427 6.43z"/><path d="M88.572 79.083c-3.55 0-6.43-2.88-6.43-6.43 0-27.94-20.893-51.425-48.596-54.633-3.527-.41-6.053-3.6-5.648-7.126.41-3.526 3.583-6.047 7.128-5.647C69.216 9.207 95 38.185 95 72.652c0 3.55-2.877 6.43-6.428 6.43z"/></g></svg>
