<svg xmlns="http://www.w3.org/2000/svg" width="99.08" height="100.002" viewBox="0 0 99.08 100.002"><g fill="#FFFFFF"><path d="M49.54 100.002c27.343.014 49.517-22.378 49.54-49.98C99.057 22.383 76.883-.01 49.54 0 22.187-.01.017 22.38 0 50.023c.018 27.6 22.188 49.993 49.54 49.98zm0-88.482c21.042 0 38.1 17.23 38.075 38.506.023 21.232-17.033 38.462-38.076 38.453-21.05.01-38.108-17.225-38.132-38.457.024-21.273 17.083-38.503 38.13-38.503z"/><path d="M57.516 70.865c-.484 0-.88-.566-.88-1.263V40.036H38.168v3.795h3.34c.485 0 .874.397.874.882v25.273c0 .485-.393.88-.873.88h-3.34v3.923h22.947v-3.922h-3.6zM49.512 21.634c4.372 0 7.922 3.546 7.922 7.922s-3.55 7.923-7.922 7.923c-4.38 0-7.927-3.548-7.927-7.924s3.547-7.922 7.927-7.922z"/></g></svg>
