<svg width="48" height="40" viewBox="0 0 48 40" xmlns="http://www.w3.org/2000/svg"><title>Briefcase</title><path d="M42 10h-2V6c0-3.3-2.7-6-6-6H14c-3.3 0-6 2.7-6 6v4H6c-3.3 0-6 2.7-6 6v18c0 3.3 2.7 6 6 6h36c3.3 0 6-2.7 6-6V16c0-3.3-2.7-6-6-6zM12 6c0-1.1.9-2 2-2h20c1.1 0 2 .9 2 2v4H12V6zm-6 8h36c1.1 0 2 .9 2 2v1.6c-2.8 2.4-7.9 4.3-13.8 5V22c0-2.2-1.8-4-4-4h-4.3c-2.2 0-4 1.8-4 4v.6c-6-.8-11-2.6-13.8-5V16c-.1-1.1.8-2 1.9-2zm20.2 14h-4.3v-6h4.3v6zM42 36H6c-1.1 0-2-.9-2-2V22.5c3.5 2.1 8.4 3.5 13.8 4.1V28c0 2.2 1.8 4 4 4h4.3c2.2 0 4-1.8 4-4v-1.4c5.5-.6 10.3-2.1 13.8-4.1V34c.1 1.1-.8 2-1.9 2z" fill="#FFFFFF" fill-rule="evenodd"/></svg>
