<svg xmlns="http://www.w3.org/2000/svg" width="582" height="637" viewBox="0, 0, 582, 637"><defs><linearGradient id="a" gradientUnits="userSpaceOnUse" x1="278.944" y1=".146" x2="278.944" y2="612.836" gradientTransform="translate(12 12)"><stop offset="0" stop-color="#50E3C2"/><stop offset="1" stop-color="#18C8A0"/></linearGradient></defs><path d="M275.902 16.031c9.297-5.18 20.747-5.18 30.043 0l248.797 138.598c9.295 5.18 15.02 14.75 15.02 25.11v277.39c0 10.358-5.725 19.928-15.02 25.127L305.944 620.951c-9.296 5.18-20.746 5.18-30.062 0L27.147 482.256c-9.297-5.18-15.021-14.77-15.021-25.128v-277.39c0-10.36 5.724-19.93 15.04-25.11L275.902 16.032" fill="url(#a)"/><path d="M275.902 16.031c9.297-5.18 20.747-5.18 30.043 0l248.797 138.598c9.295 5.18 15.02 14.75 15.02 25.11v277.39c0 10.358-5.725 19.928-15.02 25.127L305.944 620.951c-9.296 5.18-20.746 5.18-30.062 0L27.147 482.256c-9.297-5.18-15.021-14.77-15.021-25.128v-277.39c0-10.36 5.724-19.93 15.04-25.11L275.902 16.032" stroke="#FFF" stroke-width="23" fill="none"/><path d="M522.242 368.214V197.971c0-1.135 0-2.27-.543-3.405v-1.135c-.545-1.135-.545-1.702-1.09-2.837 0 0 0-.568-.544-.568-.545-1.135-1.09-1.702-2.18-2.837l-.543-.568c-.545-.567-1.634-1.134-2.18-1.702l-.544-.567L296.752 62.356c-3.81-2.27-8.17-2.27-11.98 0L66.905 184.352l-.545.567c-1.09.568-1.635 1.135-2.18 1.702l-.544.568c-.545.567-1.634 1.702-2.18 2.837 0 0 0 .568-.543.568-.545.567-.545 1.702-1.09 2.837v1.135c-.544 1.135-.544 2.27-.544 3.405v170.243c0 7.945 5.99 14.187 13.615 14.187s13.617-6.242 13.617-14.187V220.67l190.63 106.141v154.897c0 7.946 5.993 14.188 13.618 14.188s13.617-6.242 13.617-14.187V326.812l190.63-106.143v147.547c0 7.945 5.993 14.187 13.618 14.187s13.616-6.242 13.616-14.187zm-231.48-65.805L103.398 197.971 290.762 91.866l187.364 106.105-187.364 104.438z" fill="#FFF"/></svg>