<svg xmlns="http://www.w3.org/2000/svg" class="graphdiagram" viewBox="-766.0127492215133 -621.1216054226852 1305 806"><g class="layer relationships"><g class="related-pair"><g class="relationship" transform="translate(-331,-362) rotate(0)"><path class="relationship" d="M 196.43537176366482 4 L 374.5 4 L 374.5 16 L 406.5 0 L 374.5 -16 L 374.5 -4 L 196.43537176366482 -4 Z" fill="rgb(0, 0, 0)" stroke="rgb(51, 51, 51)" stroke-width="0px"/></g></g><g class="related-pair"><g class="relationship" transform="translate(-331,-37.71771240234375) rotate(0)"><path class="relationship" d="M 116.86132994346639 4 L 279.59012667936184 4 L 279.59012667936184 16 L 311.59012667936184 0 L 279.59012667936184 -16 L 279.59012667936184 -4 L 116.86132994346639 -4 Z" fill="rgb(0, 0, 0)" stroke="rgb(51, 51, 51)" stroke-width="0px"/></g></g></g><g class="layer nodes"><circle class="node node-id-0" r="181.43537176366482" fill="rgb(255, 255, 255)" stroke="rgb(0, 0, 0)" stroke-width="8px" cx="-331" cy="-362"/><g class="caption"><text class="caption node" text-anchor="middle" alignment-baseline="central" x="-331" y="-362" font-size="50px" font-family="'Gill Sans', 'Gill Sans MT', Calibri, sans-serif">module.exports</text></g><circle class="node node-id-1" r="50" fill="rgb(255, 255, 255)" stroke="rgb(0, 0, 0)" stroke-width="8px" cx="140.5" cy="-362"/><g class="caption"><text class="caption node" text-anchor="middle" alignment-baseline="central" x="140.5" y="-362" font-size="50px" font-family="'Gill Sans', 'Gill Sans MT', Calibri, sans-serif">{}</text></g><circle class="node node-id-2" r="101.86132994346639" fill="rgb(255, 255, 255)" stroke="rgb(0, 0, 0)" stroke-width="8px" cx="-331" cy="-37.71771240234375"/><g class="caption"><text class="caption node" text-anchor="middle" alignment-baseline="central" x="-331" y="-37.71771240234375" font-size="50px" font-family="'Gill Sans', 'Gill Sans MT', Calibri, sans-serif">exports</text></g><circle class="node node-id-3" r="144.90987332063816" fill="rgb(255, 255, 255)" stroke="rgb(0, 0, 0)" stroke-width="8px" cx="140.5" cy="-37.71771240234375"/><g class="caption"><text class="caption node" text-anchor="middle" alignment-baseline="central" x="140.5" y="-62.71771240234375" font-size="50px" font-family="'Gill Sans', 'Gill Sans MT', Calibri, sans-serif">function()</text><text class="caption node" text-anchor="middle" alignment-baseline="central" x="140.5" y="-12.71771240234375" font-size="50px" font-family="'Gill Sans', 'Gill Sans MT', Calibri, sans-serif">{ ... }</text></g></g><g class="layer properties"/><g class="layer overlay"><circle class="node overlay" r="185.43537176366482" stroke="none" fill="rgba(255, 255, 255, 0)" cx="-331" cy="-362"/><circle class="node ring" r="190.43537176366482" fill="none" stroke="rgba(255, 255, 255, 0)" stroke-width="10px" cx="-331" cy="-362"/><circle class="node overlay" r="54" stroke="none" fill="rgba(255, 255, 255, 0)" cx="140.5" cy="-362"/><circle class="node ring" r="59" fill="none" stroke="rgba(255, 255, 255, 0)" stroke-width="10px" cx="140.5" cy="-362"/><path class="relationship overlay" fill="rgba(255, 255, 255, 0)" stroke="rgba(255, 255, 255, 0)" stroke-width="10px" transform="translate(-331,-362) rotate(0)" d="M 196.43537176366482 4 L 374.5 4 L 374.5 16 L 406.5 0 L 374.5 -16 L 374.5 -4 L 196.43537176366482 -4 Z"/><circle class="node overlay" r="105.86132994346639" stroke="none" fill="rgba(255, 255, 255, 0)" cx="-331" cy="-37.71771240234375"/><circle class="node ring" r="110.86132994346639" fill="none" stroke="rgba(255, 255, 255, 0)" stroke-width="10px" cx="-331" cy="-37.71771240234375"/><path class="relationship overlay" fill="rgba(255, 255, 255, 0)" stroke="rgba(255, 255, 255, 0)" stroke-width="10px" transform="translate(-331,-37.71771240234375) rotate(0)" d="M 116.86132994346639 4 L 279.59012667936184 4 L 279.59012667936184 16 L 311.59012667936184 0 L 279.59012667936184 -16 L 279.59012667936184 -4 L 116.86132994346639 -4 Z"/><circle class="node overlay" r="148.90987332063816" stroke="none" fill="rgba(255, 255, 255, 0)" cx="140.5" cy="-37.71771240234375"/><circle class="node ring" r="153.90987332063816" fill="none" stroke="rgba(255, 255, 255, 0)" stroke-width="10px" cx="140.5" cy="-37.71771240234375"/></g></svg>